<?xml version="1.0" ?><!DOCTYPE svg  PUBLIC '-//W3C//DTD SVG 1.1//EN'  'http://www.w3.org/Graphics/SVG/1.1/DTD/svg11.dtd'><svg enable-background="new 0 0 128 128" height="128px" id="Layer_1" version="1.1" viewBox="0 0 128 128" width="128px" xml:space="preserve" xmlns="http://www.w3.org/2000/svg" xmlns:xlink="http://www.w3.org/1999/xlink"><g><g><g><path d="M49,123H15.6c-5.4,0-9.6-4.7-9.6-10.1V33" fill="#FFECB3"/><path d="M49,125H15.6C9.2,125,4,119.6,4,112.9V33c0-1.1,0.9-2,2-2s2,0.9,2,2v79.9c0,4.5,3.4,8.1,7.6,8.1H49     c1.1,0,2,0.9,2,2S50.1,125,49,125z" fill="#37474F"/></g><g><line fill="#FFECB3" x1="49" x2="7" y1="53" y2="53"/><path d="M49,55H7c-1.1,0-2-0.9-2-2s0.9-2,2-2h42c1.1,0,2,0.9,2,2S50.1,55,49,55z" fill="#37474F"/></g></g><g><path d="M108,35.1l14.2-8.4l-13.1-6c-2.4-5.4-7.8-9.1-14-9.1c-8.5,0-15.3,6.9-15.3,15.3c0,2.5,0.6,4.9,1.7,7    C68.4,33.6,58,22.5,58,8.8c0-1.2,0.1-2.4,0.2-3.5c-7.9,3-13.5,10.6-13.5,19.5c0,4,1.1,7.7,3.1,10.9c-2.1,5.5-1.2,12,2.9,16.8    c4.9,5.7,12.7,7.4,19.3,4.6C61.6,64.6,50,69.2,37.7,68.8c-1.5,0-3.1-0.2-4.5-0.4C37.5,78.8,48.8,86.3,63,86.8    c19.6,0.6,37.2-12.4,39.4-29.1c0.7-5.8-0.5-11.3-3.3-16.1C102.8,40.6,106,38.3,108,35.1z" fill="#B0BEC5"/><path d="M64.4,88.8C64.4,88.8,64.4,88.8,64.4,88.8c-0.5,0-1,0-1.4,0c-14.4-0.5-26.9-8.2-31.7-19.6    c-0.3-0.7-0.2-1.4,0.3-2s1.1-0.9,1.9-0.8c1.5,0.2,2.9,0.3,4.3,0.4c0.5,0,0.9,0,1.4,0c8.1,0,16.2-2.3,23.1-6.4    c-5-0.3-9.7-2.7-13-6.6c-4.2-4.9-5.6-11.7-3.6-17.9c-1.9-3.4-2.9-7.2-2.9-11.1c0-9.4,5.9-18,14.8-21.4c0.7-0.3,1.4-0.1,2,0.3    c0.6,0.4,0.8,1.1,0.7,1.8C60.1,6.6,60,7.7,60,8.8c0,11.4,8,21,18.4,22.8c-0.4-1.5-0.7-3.1-0.7-4.7c0-9.6,7.8-17.3,17.3-17.3    c6.6,0,12.6,3.8,15.5,9.6l12.4,5.7c0.7,0.3,1.1,1,1.2,1.7c0,0.7-0.3,1.4-1,1.8l-13.8,8.2c-1.9,2.7-4.5,4.9-7.5,6.2    c2.3,4.7,3.1,9.9,2.4,15.2C102.1,75.3,84.6,88.8,64.4,88.8z M36.5,70.7c5,8.3,15,13.7,26.5,14.1c18.8,0.6,35.3-11.6,37.3-27.3    c0.7-5.2-0.4-10.3-3-14.8c-0.3-0.5-0.4-1.2-0.1-1.8c0.2-0.6,0.7-1,1.3-1.2c3.2-0.9,6-2.9,7.7-5.7c0.2-0.3,0.4-0.5,0.7-0.6    l10.9-6.5l-9.6-4.4c-0.4-0.2-0.8-0.6-1-1c-2.1-4.8-6.9-7.9-12.2-7.9c-7.4,0-13.3,6-13.3,13.3c0,2.1,0.5,4.2,1.5,6.1    c0.3,0.6,0.3,1.4-0.1,2c-0.4,0.6-1,1-1.7,0.9C67.4,35.6,56,23.5,56,8.8c0-0.1,0-0.1,0-0.2c-5.6,3.4-9.2,9.5-9.2,16.2    c0,3.5,1,6.9,2.8,9.8c0.3,0.5,0.4,1.2,0.2,1.7c-1.9,5-0.9,10.7,2.6,14.8c2.8,3.3,6.9,5.2,11.3,5.2c2,0,3.9-0.4,5.7-1.2    c0.9-0.4,1.9-0.1,2.5,0.8c0.5,0.8,0.4,1.9-0.4,2.6c-8.7,7.8-20.5,12.2-32.3,12.2c0,0,0,0,0,0c-0.5,0-1,0-1.5,0    C37.3,70.8,36.9,70.8,36.5,70.7z" fill="#37474F"/></g></g></svg>